<svg xmlns="http://www.w3.org/2000/svg" width="178.2" height="35" viewBox="0 0 178.2 35"><rect class="svg__rect" x="0" y="0" width="92.19" height="35" fill="#FFFFFF"/><rect class="svg__rect" x="90.19" y="0" width="88.00999999999999" height="35" fill="#389AD5"/><path class="svg__text" d="M15.69 22L14.22 22L14.22 13.47L16.14 13.47L18.60 20.01L21.06 13.47L22.97 13.47L22.97 22L21.49 22L21.49 19.19L21.64 15.43L19.12 22L18.06 22L15.55 15.43L15.69 19.19L15.69 22ZM28.49 22L26.95 22L30.17 13.47L31.50 13.47L34.73 22L33.18 22L32.49 20.01L29.18 20.01L28.49 22ZM30.83 15.28L29.60 18.82L32.07 18.82L30.83 15.28ZM41.14 22L38.69 22L38.69 13.47L41.21 13.47Q42.34 13.47 43.21 13.97Q44.09 14.48 44.57 15.40Q45.05 16.33 45.05 17.52L45.05 17.52L45.05 17.95Q45.05 19.16 44.57 20.08Q44.08 21.00 43.19 21.50Q42.30 22 41.14 22L41.14 22ZM40.17 14.66L40.17 20.82L41.14 20.82Q42.30 20.82 42.93 20.09Q43.55 19.36 43.56 17.99L43.56 17.99L43.56 17.52Q43.56 16.13 42.96 15.40Q42.35 14.66 41.21 14.66L41.21 14.66L40.17 14.66ZM55.09 22L49.51 22L49.51 13.47L55.05 13.47L55.05 14.66L51.00 14.66L51.00 17.02L54.50 17.02L54.50 18.19L51.00 18.19L51.00 20.82L55.09 20.82L55.09 22ZM66.83 22L65.35 22L65.35 13.47L66.83 13.47L66.83 22ZM73.12 22L71.64 22L71.64 13.47L73.12 13.47L76.94 19.54L76.94 13.47L78.41 13.47L78.41 22L76.92 22L73.12 15.95L73.12 22Z" fill="#3BC4F3"/><path class="svg__text" d="M106.76 22L104.38 22L104.38 13.60L106.76 13.60L106.76 22ZM111.34 21.24L111.34 21.24L112.12 19.49Q112.69 19.86 113.43 20.09Q114.17 20.32 114.90 20.32L114.90 20.32Q116.26 20.32 116.27 19.64L116.27 19.64Q116.27 19.28 115.88 19.11Q115.49 18.93 114.62 18.74L114.62 18.74Q113.67 18.53 113.04 18.30Q112.40 18.06 111.95 17.55Q111.49 17.03 111.49 16.16L111.49 16.16Q111.49 15.39 111.91 14.77Q112.33 14.15 113.16 13.79Q114.00 13.43 115.21 13.43L115.21 13.43Q116.03 13.43 116.84 13.62Q117.64 13.80 118.26 14.17L118.26 14.17L117.53 15.93Q116.33 15.28 115.19 15.28L115.19 15.28Q114.49 15.28 114.16 15.49Q113.84 15.70 113.84 16.04L113.84 16.04Q113.84 16.37 114.22 16.54Q114.61 16.71 115.46 16.89L115.46 16.89Q116.42 17.10 117.05 17.33Q117.68 17.56 118.14 18.07Q118.60 18.58 118.60 19.46L118.60 19.46Q118.60 20.21 118.19 20.83Q117.77 21.44 116.93 21.80Q116.08 22.17 114.88 22.17L114.88 22.17Q113.86 22.17 112.90 21.92Q111.94 21.67 111.34 21.24ZM125.56 22L123.18 22L123.18 13.60L127.02 13.60Q128.17 13.60 129.00 13.98Q129.84 14.35 130.30 15.06Q130.76 15.76 130.76 16.71L130.76 16.71Q130.76 17.62 130.33 18.30Q129.90 18.98 129.11 19.36L129.11 19.36L130.92 22L128.38 22L126.85 19.77L125.56 19.77L125.56 22ZM125.56 15.47L125.56 17.93L126.88 17.93Q127.61 17.93 127.98 17.61Q128.35 17.29 128.35 16.71L128.35 16.71Q128.35 16.12 127.98 15.79Q127.61 15.47 126.88 15.47L126.88 15.47L125.56 15.47ZM136.96 22L134.54 22L138.25 13.60L140.59 13.60L144.30 22L141.84 22L141.17 20.37L137.62 20.37L136.96 22ZM139.40 15.93L138.32 18.61L140.48 18.61L139.40 15.93ZM155.20 22L148.46 22L148.46 13.60L155.05 13.60L155.05 15.44L150.81 15.44L150.81 16.85L154.55 16.85L154.55 18.63L150.81 18.63L150.81 20.17L155.20 20.17L155.20 22ZM166.39 22L160.01 22L160.01 13.60L162.39 13.60L162.39 20.11L166.39 20.11L166.39 22Z" fill="#FFFFFF" x="103.19"/></svg>